<svg width="24" height="24" viewBox="0 0 24 24" fill="none" xmlns="http://www.w3.org/2000/svg">
<rect width="24" height="24" style="mix-blend-mode:multiply"/>
<path d="M20.9324 13.4102C21.008 12.944 21.0456 12.4724 21.0449 12.0002C21.0449 9.60129 20.0919 7.30066 18.3957 5.60439C16.6994 3.90813 14.3988 2.95517 11.9999 2.95517C11.5276 2.95444 11.0561 2.99207 10.5899 3.06768C9.54445 2.44143 8.31975 2.18241 7.11027 2.33174C5.90079 2.48107 4.77587 3.0302 3.91415 3.89193C3.05242 4.75365 2.50329 5.87857 2.35396 7.08805C2.20462 8.29753 2.46365 9.52223 3.08989 10.5677C3.00552 11.0406 2.96036 11.5198 2.95489 12.0002C2.95489 14.3991 3.90784 16.6997 5.60411 18.396C7.30038 20.0922 9.60101 21.0452 11.9999 21.0452C12.4722 21.0459 12.9437 21.0083 13.4099 20.9327C14.4553 21.5589 15.68 21.8179 16.8895 21.6686C18.099 21.5193 19.2239 20.9701 20.0856 20.1084C20.9474 19.2467 21.4965 18.1218 21.6458 16.9123C21.7952 15.7028 21.5361 14.4781 20.9099 13.4327L20.9324 13.4102ZM16.2974 16.1102C15.874 16.6955 15.2907 17.146 14.6174 17.4077C13.7867 17.7337 12.8996 17.8917 12.0074 17.8727C10.9689 17.9161 9.93579 17.7023 8.99989 17.2502C8.45426 16.9569 7.98634 16.5378 7.63489 16.0277C7.31296 15.5919 7.12998 15.0691 7.10989 14.5277C7.1091 14.3872 7.13734 14.2481 7.19283 14.119C7.24833 13.9899 7.32988 13.8737 7.43239 13.7777C7.65955 13.5843 7.95198 13.4851 8.24989 13.5002C8.49885 13.4955 8.74117 13.5807 8.93239 13.7402C9.14171 13.936 9.30335 14.1772 9.40489 14.4452C9.53501 14.7584 9.70113 15.0554 9.89989 15.3302C10.098 15.5839 10.3556 15.7848 10.6499 15.9152C11.0496 16.0867 11.4828 16.1661 11.9174 16.1477C12.5364 16.1777 13.1495 16.0152 13.6724 15.6827C13.8731 15.5651 14.04 15.3977 14.1569 15.1966C14.2739 14.9956 14.3369 14.7677 14.3399 14.5352C14.3464 14.3723 14.3183 14.2099 14.2576 14.0587C14.1968 13.9075 14.1047 13.7708 13.9874 13.6577C13.7203 13.4116 13.3992 13.2318 13.0499 13.1327C12.6599 13.0052 12.1424 12.8777 11.4899 12.7352C10.7405 12.5607 10.0096 12.3146 9.30739 12.0002C8.75481 11.7737 8.26756 11.4128 7.88989 10.9502C7.53169 10.4734 7.34652 9.88877 7.36489 9.29268C7.35883 8.68668 7.55403 8.0958 7.91989 7.61267C8.33778 7.09349 8.8943 6.7034 9.52489 6.48767C10.3222 6.22284 11.1601 6.10096 11.9999 6.12768C12.657 6.11605 13.312 6.20457 13.9424 6.39018C14.4371 6.53708 14.9019 6.77071 15.3149 7.08017C15.6399 7.3243 15.9107 7.63334 16.1099 7.98767C16.272 8.2739 16.3597 8.59626 16.3649 8.92518C16.3639 9.06539 16.3349 9.20399 16.2795 9.3328C16.2241 9.46161 16.1435 9.57803 16.0424 9.67518C15.9403 9.78577 15.8161 9.87364 15.6779 9.93308C15.5396 9.99252 15.3904 10.0222 15.2399 10.0202C14.9986 10.0389 14.7594 9.9637 14.5724 9.81018C14.3756 9.62055 14.2109 9.40017 14.0849 9.15768C13.8991 8.77542 13.63 8.43969 13.2974 8.17517C12.8609 7.90304 12.347 7.78183 11.8349 7.83017C11.3092 7.80801 10.7883 7.93824 10.3349 8.20517C10.1702 8.29312 10.0311 8.42227 9.9312 8.58C9.8313 8.73774 9.774 8.91869 9.76489 9.10518C9.75895 9.30894 9.82538 9.50822 9.95239 9.66768C10.102 9.84099 10.2858 9.98144 10.4924 10.0802C10.7124 10.194 10.9436 10.2845 11.1824 10.3502C11.4224 10.4177 11.8124 10.5152 12.3599 10.6427C13.0499 10.7927 13.6649 10.9577 14.2274 11.1377C14.7305 11.291 15.2101 11.5131 15.6524 11.7977C16.0382 12.0417 16.3557 12.3798 16.5749 12.7802C16.7978 13.2369 16.901 13.7427 16.8749 14.2502C16.8817 14.9153 16.6797 15.5658 16.2974 16.1102Z" fill="white"/>
</svg>
